<?xml version="1.0" encoding="UTF-8" standalone="no"?>
<!DOCTYPE svg PUBLIC "-//W3C//DTD SVG 1.1//EN" "http://www.w3.org/Graphics/SVG/1.1/DTD/svg11.dtd">
<svg width="100%" height="100%" viewBox="0 0 582 832" version="1.1" xmlns="http://www.w3.org/2000/svg" xmlns:xlink="http://www.w3.org/1999/xlink" xml:space="preserve" xmlns:serif="http://www.serif.com/" style="fill-rule:evenodd;clip-rule:evenodd;stroke-linejoin:round;stroke-miterlimit:2;">
    <g id="Ghana">
        <g transform="matrix(1,0,0,1,516,758.032)">
            <path d="M10,8.968L46,8.968L46,74L37,74L37,46L19,46L19,74L10,74L10,8.968ZM19,19L19,37L37.526,37L37.526,19L19,19Z" style="fill:rgb(2,2,2);"/>
        </g>
        <g transform="matrix(1,0,0,1,503,777)">
            <rect x="0" y="0" width="9" height="54"/>
        </g>
        <g transform="matrix(1,0,0,1,475,758)">
            <path d="M0,8.912L28,8.912C28,14.852 28,37.7 28,19L10,19L10,74L0,74L0,8.912Z" style="fill:rgb(17,17,17);fill-rule:nonzero;"/>
        </g>
        <g transform="matrix(1,0,0,1,415,758)">
            <path d="M10,8.968L46,8.968L46,74L37,74L37,46L19,46L19,74L10,74L10,8.968ZM19,19L19,37L37.526,37L37.526,19L19,19Z" style="fill:rgb(2,2,2);"/>
        </g>
        <g transform="matrix(1,0,0,1,369,758)">
            <path d="M0,9L9,9L9,37L28,37L28,9L37,9L37,73L28,73L28,46L9,46L9,73L0,73L0,9Z" style="fill:rgb(3,3,3);fill-rule:nonzero;"/>
        </g>
        <g transform="matrix(1,0,0,1,314,757)">
            <path d="M0,10L37,10L37,19L0,19L0,64.651L28,64.651L28,46L9,46L9,38L37,38L37,74L-8.938,74L-8.938,18L0,18L0,10Z" style="fill:rgb(2,2,2);fill-rule:nonzero;"/>
        </g>
    </g>
    <g transform="matrix(1,0,0,1,360,-1)">
        <path d="M101,195L73.999,195.006L73.995,213.003L129,212.984L129,241L-285,241L-285,149L-304,149L-304,121L-313,121L-313,36.721L-37,37L-18,37L-18,28L18.788,28L18.954,9.858L46,9.984L46,28L64.096,28.01L64.019,48.118L46,48.118L46,85L73,85L73,94L101,94L101,195Z" style="fill:rgb(254,38,31);"/>
    </g>
    <g transform="matrix(1,0,0,1,461,176)">
        <path d="M26.68,312.719L26.68,341.719C29.65,341.719 33.94,342 37,342L37,360C43.27,360 39.512,360.3 45.972,360.3C45.972,369.54 46.088,378.48 46.088,388L65,388L65,397L93,397L93,415L121,415L121,443L112,443L112,453L93,453L93,471L84,471L84,480L28,480L28,470C26.223,470.246 26.223,470.246 24.41,470.496C17.763,471.235 11.117,471.107 4.438,471.063C2.495,471.056 2.495,471.056 0.514,471.049C-2.658,471.037 -5.829,471.021 -9,471L-9,480L-46,480L-46,489L-73,489L-73,507L-92,507L-92,517L-119,517L-156,517.043L-156,544L-202,544C-202,550.6 -201.906,546.2 -201.906,553L-257,553L-257,573L-266,573L-266,582L-331,582L-331,573L-433,573L-433,535L-395,535L-395,480L-414,480L-414,489L-442,489L-442,388.2L-452,388.2L-452,342L-442,342L-442,322L-433,322L-433,313L26.68,312.719Z" style="fill:rgb(0,177,113);fill-rule:nonzero;"/>
    </g>
    <g transform="matrix(1,0,0,1,84,240)">
        <path d="M0,0L386,0L386,9L377,9L377,27L386,27L386,56L377,56L377,65L386,65L386,84L405,84L405,93L423,93L423,111L405,111L405,120L386,120L386,139L405,139L405,249L-37,249L-37,176L-27,176L-27,148L-9,148L-9,138L0,138L-0.04,64.384L-9,65L-9,9L0,9L0,0Z" style="fill:rgb(252,239,29);fill-rule:nonzero;"/>
    </g>
    <g transform="matrix(1,0,0,1,259,249)">
        <path d="M-64,213L-64,231L-74,231L-74,203L-64,203L-64,185L-55,185L-55,176L-46,176L-46,157L-37,157L-37,139L-74,139L-74,120L-101,120L-101,111L-129,111L-129,102L-20.953,102L-20.953,75L-9,75L-9,38L0,38L0,0L18.996,-0.002L19,38.013L28,38.013L28,75L37,75L37,102L147,102L147,111L119,111L119,121L92,121L92,139L55,139L55,148L64,148L64,176L83,176L83,203L92,203L92,231L83,231L83,213L55,213L55,203L37,203L37,194L27,194L27,176L18,176L18,167L0,167L0,176L-9,176L-9,194L-28,194L-28,203L-37,203L-37,213L-64,213Z" style="fill:rgb(2,2,0);"/>
    </g>
    <g id="Line">
        <g transform="matrix(1,0,0,1,37,416)">
            <path d="M-18,82L-18,64L0,64L0,0L10,0L10,73L-9,73L-9,82L-18,82Z"/>
        </g>
        <g transform="matrix(1,0,0,1,84,314)">
            <path d="M-0.065,55C-0.065,57.64 0.062,62.353 0.062,65.073L-8.938,65.073C-8.938,62.433 -9.065,57.72 -9.065,55L-9,55L-9,46L0,46L0,-8.984L9.266,-8.927C9.266,-8.927 9,31.36 9,47L9,55L-0.065,55Z"/>
        </g>
        <g transform="matrix(1,0,0,1,48,388)">
            <rect x="0" y="0" width="9" height="28"/>
        </g>
        <g transform="matrix(1,0,0,1,66,379)">
            <rect x="-9" y="0" width="18" height="9"/>
        </g>
        <g transform="matrix(1.00364,0,0,1,47,27)">
            <path d="M0,0L275,0L275,9L9,9L9,29L0,29L0,0Z" style="fill-rule:nonzero;"/>
        </g>
        <g transform="matrix(1,0,0,1,47,637)">
            <path d="M0,10L28,10L28,83L-19,83L-19,92L-28,92L-28,83L-38,83L-38,74L19,74L19,19L0,19L0,10Z" style="fill-rule:nonzero;"/>
        </g>
        <g transform="matrix(1,0,0,1,461,176)">
            <path d="M0,18L0,-1.007L9,-1.007L9,27L-18,27L-18,36L9,36L9,45L-27,45L-27,36L-55,36L-55,27L-27,27L-27,18L0,18Z"/>
        </g>
        <g transform="matrix(1,0,0,1,369,0)">
            <path d="M0,0L46,0L46,18L64,18L64,47.118L55,47.118L55,27L37,27L37,9L10,9C10,11.97 9.853,27 9.853,27L-18,27L-18,18L0,18L0,0Z" style="fill-rule:nonzero;"/>
        </g>
        <g transform="matrix(1,0,0,1,526,573)">
            <path d="M0,9L0,0L28,0L28,18L56,18L56,46.929L47,46.929L47,28L19,28L19,18L10,18L10,9L0,9Z"/>
        </g>
        <g transform="matrix(1,0,0,1,66,185)">
            <path d="M0,0L9,0L9,18L18,18L18,64L9,64L9,82L0,82L0,55L9,55L9,27L0,27L0,0Z" style="fill-rule:nonzero;"/>
        </g>
        <g transform="matrix(1,0,0,1,489,379)">
            <path d="M0,0L9,0L9,37L0,37L0,64L-19,64L-19,36L0,36L0,0Z" style="fill-rule:nonzero;"/>
        </g>
        <g transform="matrix(1,0,0,1,37,740)">
            <rect x="-9" y="0" width="102" height="9"/>
        </g>
        <g transform="matrix(1,0,0,1,9,711)">
            <path d="M0,0L57,0L57,9L19,9L19,29L10,29L10,9L0,9L0,0Z" style="fill-rule:nonzero;"/>
        </g>
        <g transform="matrix(1,0,0,1,19,619)">
            <path d="M0,46L0,-9L9,-9L9,37L28,37L28,46L0,46Z"/>
        </g>
        <g transform="matrix(1,0,0,1,204,720)">
            <rect x="0" y="0" width="55" height="9"/>
        </g>
        <g transform="matrix(1,0,0,1,507,332.849)">
            <path d="M0,0L9,0L9,27L-27,27L-27,18L0,18L0,0Z" style="fill-rule:nonzero;"/>
        </g>
        <g transform="matrix(1,0,0,1,471,203)">
            <path d="M18,9L-1,9L-1,0L27,0L27.053,37L18.053,37L18,9Z"/>
        </g>
        <g transform="matrix(0.5,0,0,1.04181,470,266.679)">
            <rect x="0" y="0" width="17" height="28"/>
        </g>
        <g transform="matrix(1,0,0,1,9,564)">
            <rect x="0" y="0" width="10" height="46"/>
        </g>
        <g transform="matrix(1,0,0,1,443,638)">
            <path d="M9,9L9,17.995L-18,17.995L-18,9L0,9L0,0L46,0L46,9L9,9Z"/>
        </g>
        <g transform="matrix(1,0,0,1,497.768,526.967)">
            <path d="M9,37L9,18L0,18L0,0L9,0L9,9L18,9L18,28L28.064,28L28.064,37L9,37ZM18.232,37.033L28.232,37.033L28.232,46.033L18.232,46.033L18.232,37.033Z"/>
        </g>
        <g transform="matrix(1,0,0,1,480,443.035)">
            <path d="M9,45.965L9,9L0,9L0,0L18,0L18,45.965L9,45.965Z"/>
        </g>
        <g transform="matrix(1,0,0,1,37,56)">
            <rect x="0" y="0" width="10" height="36"/>
        </g>
        <g transform="matrix(1,0,0,1,369,665)">
            <rect x="0" y="0" width="19" height="18"/>
        </g>
        <g transform="matrix(1,0,0,1,75,267)">
            <rect x="0" y="0" width="9" height="38"/>
        </g>
        <g transform="matrix(1,0,0,1,259,711)">
            <rect x="0" y="0" width="37" height="9"/>
        </g>
        <g transform="matrix(1,0,0,1.24866,0,518)">
            <rect x="0" y="0" width="9" height="37"/>
        </g>
        <g transform="matrix(1,0,0,1,305,693)">
            <rect x="0" y="0" width="36" height="9"/>
        </g>
        <g transform="matrix(1,0,0,1,452,139)">
            <rect x="0" y="-9" width="9" height="45"/>
        </g>
        <g transform="matrix(1,0,0,1,56,120)">
            <path d="M10,27.887L10,28L0,28L0,0L10,0L10,18.887L19,18.887L19,27.887L10,27.887Z"/>
        </g>
        <g transform="matrix(1.04154,0,0,1,139,758)">
            <rect x="0" y="0" width="27" height="9"/>
        </g>
        <g transform="matrix(1.03704,0,0,1,167,749)">
            <rect x="0" y="0" width="27" height="9"/>
        </g>
        <g transform="matrix(1,0,0,1,545.5,619.929)">
            <path d="M0,0C5.94,0 21.314,0.063 27.434,0.063L27.434,9.063C24.464,9.063 12.06,9 9,9L9,27.071L-0,27.071L0,0Z" style="fill-rule:nonzero;"/>
        </g>
        <g transform="matrix(1,0,0,1,434,93)">
            <path d="M18,9L0,9L0,0L27,0L27,18L18,18L18,9Z"/>
        </g>
        <g transform="matrix(1,0,0,1,323,36)">
            <rect x="0" y="0" width="19" height="10.076"/>
        </g>
        <g transform="matrix(1,0,0,1,9,498)">
            <rect x="0" y="0" width="10" height="20"/>
        </g>
        <g transform="matrix(1,0,0,1,470,314)">
            <path d="M0,10L0,-8.946L9,-8.946L9,0L19,0L19,10L0,10Z"/>
        </g>
        <g transform="matrix(1,0,0,1,195,729)">
            <rect x="0" y="0" width="9" height="20"/>
        </g>
        <g transform="matrix(1,0,0,1.52456,479.768,489)">
            <rect x="0" y="0" width="9" height="19"/>
        </g>
        <g transform="matrix(1,0,0,1,397,656)">
            <rect x="-9" y="0" width="37" height="9"/>
        </g>
        <g transform="matrix(1.05849,0,0,2.12787,470,359.849)">
            <rect x="0" y="0" width="18" height="9"/>
        </g>
        <g transform="matrix(1,0,0,1,489,324)">
            <rect x="0" y="0" width="18" height="9"/>
        </g>
        <g transform="matrix(1,0,0,1,461,249)">
            <rect x="0" y="0" width="9" height="18"/>
        </g>
        <g transform="matrix(1,0,0,1,66,185)">
            <rect x="0" y="0" width="9" height="18"/>
        </g>
        <g transform="matrix(1,0,0,1,461,111)">
            <rect x="0" y="0" width="9" height="19"/>
        </g>
        <g transform="matrix(1,0,0,1,47,102)">
            <rect x="0" y="-10.162" width="9" height="28.162"/>
        </g>
        <g transform="matrix(1,0,0,1,406,65)">
            <path d="M0,19L0,0L9,0L9,9L18,9L18,19L0,19Z"/>
        </g>
        <g transform="matrix(1,0,0,1,406,18)">
            <rect x="0" y="29" width="18.215" height="9"/>
        </g>
        <g transform="matrix(1,0,0,1,470,240)">
            <rect x="0" y="0" width="19" height="9"/>
        </g>
        <g transform="matrix(1,0,0,1,360,683)">
            <path d="M-17.89,-0.027L9,0L9,10L-18,10L-17.89,-0.027Z" style="fill-rule:nonzero;"/>
        </g>
        <g transform="matrix(1,0,0,1,75,175)">
            <rect x="0" y="0" width="9" height="10"/>
        </g>
        <g transform="matrix(1,0,0,1,130,749)">
            <rect x="0" y="0" width="9" height="9"/>
        </g>
        <g transform="matrix(1,0,0,1,204,720)">
            <rect x="0" y="0" width="9" height="9"/>
        </g>
        <g transform="matrix(1,0,0,1,296,702)">
            <path d="M0,0L9,0C9,2.97 9.028,14.886 9.028,17.946C6.058,17.946 3.06,18 0,18L0,0Z" style="fill-rule:nonzero;"/>
        </g>
        <g transform="matrix(1,0,0,1,488.768,517.967)">
            <rect x="0" y="0" width="9" height="9"/>
        </g>
        <g transform="matrix(1,0,0,1,461,296)">
            <rect x="0" y="0" width="9" height="9"/>
        </g>
        <g transform="matrix(1,0,0,1,66,166)">
            <rect x="0" y="-9" width="9" height="18"/>
        </g>
        <g transform="matrix(1,0,0,1,75,148)">
            <rect x="0" y="0" width="9" height="9"/>
        </g>
        <g transform="matrix(1,0,0,1,424,84)">
            <rect x="0" y="0" width="9" height="9"/>
        </g>
        <g transform="matrix(1,0,0,1,397,56)">
            <rect x="0" y="0" width="9" height="9"/>
        </g>
        <g transform="matrix(1,0,0,1,342,27)">
            <rect x="0" y="0" width="9" height="9"/>
        </g>
        <g transform="matrix(5.22222,0,0,1.12444,489,647)">
            <path d="M0,0C2.97,0 7.759,0.004 10.819,0.004L10.819,8.004C7.849,8.004 3.06,8 0,8L0,0Z" style="fill-rule:nonzero;"/>
        </g>
    </g>
</svg>
